<?xml version="1.0" encoding="utf-8"?>
<!-- Generator: Adobe Illustrator 27.7.0, SVG Export Plug-In . SVG Version: 6.00 Build 0)  -->
<svg version="1.1" id="레이어_1" xmlns="http://www.w3.org/2000/svg" xmlns:xlink="http://www.w3.org/1999/xlink" x="0px"
	 y="0px" viewBox="0 0 30 30" style="enable-background:new 0 0 30 30;" xml:space="preserve">
<style type="text/css">
	.st0{fill:#FFFFFF;}
</style>
<path class="st0" d="M5.4,5.3c0,2.7,2.2,4.9,4.9,4.9h5V0.4h-5C7.6,0.4,5.4,2.6,5.4,5.3z"/>
<path class="st0" d="M5.4,15.1c0,2.7,2.2,4.9,4.9,4.9l0,0h5v-9.8h-5C7.6,10.3,5.4,12.4,5.4,15.1z"/>
<path class="st0" d="M10.3,20.1c-2.7,0-4.9,2.2-4.9,4.9s2.2,4.9,4.9,4.9c2.8,0,5-2.2,5-5v-4.8L10.3,20.1L10.3,20.1z"/>
<path class="st0" d="M20.5,0.4h-5v9.8h5c2.7,0,4.9-2.2,4.9-4.9S23.2,0.4,20.5,0.4z"/>
<path class="st0" d="M20.5,10.3h-0.2c-2.7,0-4.9,2.2-4.9,4.9s2.2,4.9,4.9,4.9h0.2c2.7,0,4.9-2.2,4.9-4.9
	C25.4,12.4,23.2,10.3,20.5,10.3z"/>
</svg>
