<?xml version="1.0" encoding="utf-8"?>
<!-- Generator: Adobe Illustrator 27.7.0, SVG Export Plug-In . SVG Version: 6.00 Build 0)  -->
<svg version="1.1" id="레이어_1" xmlns="http://www.w3.org/2000/svg" xmlns:xlink="http://www.w3.org/1999/xlink" x="0px"
	 y="0px" viewBox="0 0 30 30" style="enable-background:new 0 0 30 30;" xml:space="preserve">
<style type="text/css">
	.st0{fill:#FFFFFF;}
</style>
<path class="st0" d="M10.1,23.6c0,0.1-0.1,0.2-0.3,0.2s-0.3-0.1-0.3-0.2s0.1-0.2,0.3-0.2S10.1,23.5,10.1,23.6z M8.3,23.4
	c0,0.1,0.1,0.3,0.3,0.3c0.2,0.1,0.3,0,0.4-0.1c0-0.1-0.1-0.3-0.3-0.3C8.5,23.2,8.3,23.2,8.3,23.4z M10.9,23.3
	c-0.2,0-0.3,0.2-0.3,0.3c0,0.1,0.2,0.2,0.4,0.2s0.3-0.2,0.3-0.3C11.2,23.3,11.1,23.2,10.9,23.3z M14.8,0.5C6.6,0.5,0.3,6.7,0.3,15
	c0,6.6,4.1,12.2,10.1,14.2c0.8,0.1,1-0.3,1-0.7c0-0.4,0-2.4,0-3.6c0,0-4.2,0.9-5-1.8c0,0-0.7-1.7-1.7-2.2c0,0-1.4-0.9,0.1-0.9
	c0,0,1.5,0.1,2.3,1.5c1.3,2.3,3.5,1.6,4.3,1.2c0.1-1,0.5-1.6,1-2c-3.3-0.4-6.7-0.8-6.7-6.6c0-1.6,0.5-2.5,1.4-3.5
	c-0.2-0.4-0.7-2,0.2-4c1.2-0.4,4.1,1.6,4.1,1.6c1.2-0.3,2.5-0.5,3.7-0.5s2.5,0.2,3.7,0.5c0,0,2.9-2,4.1-1.6c0.8,2.1,0.3,3.6,0.2,4
	c1,1.1,1.5,1.9,1.5,3.5c0,5.7-3.5,6.2-6.8,6.6c0.5,0.5,1,1.4,1,2.8c0,2,0,4.5,0,5c0,0.4,0.3,0.9,1,0.7c5.9-2,10-7.6,10-14.2
	C29.7,6.7,23,0.5,14.8,0.5z M6,21c0,0,0,0.2,0.1,0.3c0.1,0.1,0.2,0.1,0.3,0.1c0.1-0.1,0.1-0.2,0-0.3C6.3,20.9,6.1,20.9,6,21z
	 M5.4,20.5c0,0.1,0,0.2,0.1,0.2c0.1,0.1,0.2,0,0.3,0c0-0.1,0-0.2-0.1-0.2C5.5,20.4,5.4,20.4,5.4,20.5z M7.3,22.6
	c-0.1,0.1-0.1,0.3,0.1,0.4c0.1,0.1,0.3,0.2,0.4,0.1s0-0.3-0.1-0.4C7.6,22.5,7.4,22.5,7.3,22.6z M6.6,21.7c-0.1,0.1-0.1,0.2,0,0.4
	c0.1,0.1,0.3,0.2,0.3,0.1C7,22.1,7,22,6.9,21.8C6.9,21.7,6.7,21.7,6.6,21.7z"/>
</svg>
