<?xml version="1.0" encoding="utf-8"?>
<!-- Generator: Adobe Illustrator 27.7.0, SVG Export Plug-In . SVG Version: 6.00 Build 0)  -->
<svg version="1.1" id="레이어_1" xmlns="http://www.w3.org/2000/svg" xmlns:xlink="http://www.w3.org/1999/xlink" x="0px"
	 y="0px" viewBox="0 0 904.7 810.8" style="enable-background:new 0 0 904.7 810.8;" xml:space="preserve">
<style type="text/css">
	.st0{fill:#A5A5A5;}
	.st1{fill:none;stroke:#A5A5A5;stroke-width:17;stroke-linecap:round;stroke-linejoin:round;stroke-miterlimit:10;}
	.st2{fill:none;stroke:#A5A5A5;stroke-width:17;stroke-linecap:square;stroke-linejoin:round;stroke-miterlimit:10;}
</style>
<g>
	<path class="st0" d="M103,667.1c-15.3,0-27.7-12.4-27.7-27.7c0-15.3,12.4-27.7,27.7-27.7s27.7,12.4,27.7,27.7
		C130.7,654.7,118.3,667.1,103,667.1z M103,629.7c-5.4,0-9.7,4.4-9.7,9.7c0,5.4,4.4,9.7,9.7,9.7c5.4,0,9.7-4.4,9.7-9.7
		C112.7,634,108.4,629.7,103,629.7z"/>
	<path class="st0" d="M408.9,677.5c-15.3,0-27.7-12.4-27.7-27.7c0-15.3,12.4-27.7,27.7-27.7c15.3,0,27.7,12.4,27.7,27.7
		C436.6,665.1,424.1,677.5,408.9,677.5z M408.9,640.1c-5.4,0-9.7,4.4-9.7,9.7c0,5.4,4.4,9.7,9.7,9.7c5.4,0,9.7-4.4,9.7-9.7
		C418.6,644.5,414.2,640.1,408.9,640.1z"/>
	<path class="st0" d="M583.5,691.8c-15.3,0-27.7-12.4-27.7-27.7s12.4-27.7,27.7-27.7c15.3,0,27.7,12.4,27.7,27.7
		S598.8,691.8,583.5,691.8z M583.5,654.4c-5.4,0-9.7,4.4-9.7,9.7c0,5.4,4.4,9.7,9.7,9.7c5.4,0,9.7-4.4,9.7-9.7
		C593.2,658.7,588.8,654.4,583.5,654.4z"/>
	<path class="st0" d="M753.6,682.6c-13.8,0-24.9-11.2-24.9-24.9c0-13.8,11.2-24.9,24.9-24.9c13.8,0,24.9,11.2,24.9,24.9
		C778.6,671.4,767.4,682.6,753.6,682.6z M753.6,650.7c-3.8,0-6.9,3.1-6.9,6.9c0,3.8,3.1,6.9,6.9,6.9c3.8,0,6.9-3.1,6.9-6.9
		C760.6,653.8,757.5,650.7,753.6,650.7z"/>
	<path class="st0" d="M796.7,752.8c-14.9,0-27-12.1-27-27c0-14.9,12.1-27,27-27s27,12.1,27,27C823.7,740.6,811.6,752.8,796.7,752.8z
		 M796.7,716.7c-5,0-9,4.1-9,9c0,5,4.1,9,9,9s9-4.1,9-9C805.7,720.8,801.6,716.7,796.7,716.7z"/>
	<path class="st0" d="M101.9,726.8c-5,0-9-4-9-9v-31.3c0-5,4-9,9-9s9,4,9,9v31.3C110.9,722.7,106.9,726.8,101.9,726.8z"/>
	<path class="st0" d="M160.3,727.8C160.3,727.8,160.3,727.8,160.3,727.8l-121.1-1c-5,0-9-4.1-8.9-9.1c0-4.9,4.1-8.9,9-8.9
		c0,0,0.1,0,0.1,0l121,1c5,0,9,4.1,8.9,9.1C169.3,723.8,165.2,727.8,160.3,727.8z"/>
	<path class="st0" d="M265.2,640.6c-8.3,0-15.1-2.2-19-3.4c-0.7-0.2-1.6-0.5-2-0.6c-2.4-0.2-4.7-1.3-6.4-3.1
		c-2.4-2.6-6-6.5-2.8-46.2c0.4-5,4.7-8.7,9.7-8.3c5,0.4,8.7,4.7,8.3,9.7c-0.9,11.3-1.4,24.9-0.9,31.5c7.4,2.4,19.6,6.1,31.7-5.3
		c3.6-3.4,9.3-3.3,12.7,0.3c3.4,3.6,3.3,9.3-0.3,12.7C285.5,637.8,274.5,640.6,265.2,640.6z M252.4,623.3L252.4,623.3L252.4,623.3z"
		/>
	<path class="st0" d="M321.2,681.4c-0.6,0-1.3-0.1-1.9-0.2c-9.9-2.1-78.9-2.3-120.1-1.9c0,0-0.1,0-0.1,0c-4.9,0-8.9-4-9-8.9
		c0-5,3.9-9,8.9-9.1c11.1-0.1,108.9-1,124,2.3c4.9,1,8,5.8,6.9,10.7C329.1,678.5,325.3,681.4,321.2,681.4z"/>
	<path class="st0" d="M248.5,787.6c-8.7,0-16.5-0.4-19.3-1.5c-2.1-0.9-5.1-2.8-6.8-7.5c-3.7-9.8-2-35.3,1.1-41.4
		c2.8-5.7,8.9-7.4,28.2-8c7.8-0.3,15.9-0.2,21.5-0.2c0.4-3.3,0.6-7.6,0.8-10.4c0.1-1.7,0.2-3.3,0.3-4.7c-5.7-1.3-17.2-2.3-28.1-2.3
		c-5,0-9-4-9-9c0-5,4-9,9-9c36.3,0,41.9,6.5,43.8,8.7c2.2,2.5,3.1,5.7,2.7,8.9c-0.3,1.8-0.5,5.1-0.7,8.6c-0.3,4.4-0.6,9.4-1.2,13.3
		c-0.5,3.5-1.9,13.9-11.2,13.9c-0.3,0-1,0-2,0c-23.7-0.3-34,0.4-38.4,1c-0.8,5.7-1.2,16-0.5,21.4c14.4,0.8,58.3-1.1,66.4-3.5
		c3.5-2.2,8.1-1.7,11.1,1.3c3.5,3.5,3.5,9.2,0,12.7c-2.4,2.4-5.4,5.4-44.2,7.1C265.3,787.3,256.5,787.6,248.5,787.6z M303.3,767.2
		C303.3,767.2,303.3,767.2,303.3,767.2C303.3,767.2,303.3,767.2,303.3,767.2z M277.2,714.9L277.2,714.9L277.2,714.9z"/>
	<path class="st0" d="M455.8,709.5c-1,0-2-0.2-3-0.5c-8.1-2.9-55-2.5-95.6-0.5c-5,0.2-9.2-3.6-9.4-8.5c-0.2-5,3.6-9.2,8.5-9.4
		c14.4-0.7,87.1-4,102.6,1.6c4.7,1.7,7.1,6.8,5.4,11.5C462.9,707.2,459.4,709.5,455.8,709.5z"/>
	<path class="st0" d="M485,730.4c-5,0-9-4-9-9c0-4.4-2.5-57.1-4.2-91.4c-0.2-5,3.6-9.2,8.5-9.4c4.9-0.3,9.2,3.6,9.4,8.5
		c0.4,8.8,4.2,85.9,4.2,92.2C494,726.4,489.9,730.4,485,730.4z"/>
	<path class="st0" d="M663.9,659.8c-14.6,0-33.6-5-38-6.2c-4.8-1.3-7.6-6.3-6.3-11.1c1.3-4.8,6.3-7.6,11.1-6.3
		c11.6,3.2,31.2,6.9,38.2,5.2c4.8-1.2,9.7,1.7,10.9,6.5c1.2,4.8-1.7,9.7-6.5,10.9C670.5,659.5,667.4,659.8,663.9,659.8z"/>
	<path class="st0" d="M652.8,692.3c-10.5,0-22.9-0.3-29.9-0.5c-5-0.1-8.9-4.3-8.8-9.2c0.1-5,4.3-8.9,9.2-8.8
		c18.4,0.5,39.5,0.7,43,0.2c4.9-1,9.6,2.2,10.5,7.1c1,4.9-2.2,9.6-7.1,10.6C667.3,692.1,660.6,692.3,652.8,692.3z"/>
	<path class="st0" d="M671.1,735.6c-5,0-9-4-9-9V607.7c0-5,4-9,9-9c5,0,9,4,9,9v118.9C680,731.6,676,735.6,671.1,735.6z"/>
	<path class="st0" d="M769.4,613.6c-2.3,0-4.6-0.9-6.4-2.6c-3.3-3.3-14.9-11.3-21.5-15.5c-4.2-2.7-5.4-8.3-2.7-12.4
		c2.7-4.2,8.3-5.4,12.4-2.7c1.9,1.2,18.7,12.2,24.4,17.9c3.5,3.5,3.5,9.2,0,12.7C774,612.7,771.7,613.6,769.4,613.6z"/>
	<path class="st0" d="M785.1,635.5c-2,0-4.1-0.7-5.8-2.1c-5.9-4.9-36.7-7.2-61.7-6.3c-5,0.2-9.1-3.7-9.3-8.7c-0.2-5,3.7-9.1,8.7-9.3
		c13.8-0.5,59.8-1.3,73.9,10.4c3.8,3.2,4.3,8.9,1.2,12.7C790.2,634.4,787.7,635.5,785.1,635.5z"/>
	<path class="st0" d="M818.3,697c-1.3,0-2.6-0.3-3.8-0.8c-4.5-2.1-6.5-7.5-4.3-12c1.6-3.3,3.3-14.7,3.2-35.8
		c-0.1-19.5-1.7-35.6-2.7-40.1c-0.9-1.4-1.4-3-1.4-4.8c0-5,4-9,9-9c8.2,0,9.7,8.5,10.2,11.2c0.5,2.7,1,6.4,1.4,11
		c0.9,9.3,1.4,20.8,1.4,31.5c0.1,21.6-1.5,36.3-4.9,43.5C824.9,695.1,821.7,697,818.3,697z M818.3,612.5
		C818.3,612.5,818.3,612.5,818.3,612.5C818.3,612.5,818.3,612.5,818.3,612.5z M818.3,612.5C818.3,612.5,818.3,612.5,818.3,612.5
		C818.3,612.5,818.3,612.5,818.3,612.5z M818.2,612.5C818.2,612.5,818.2,612.5,818.2,612.5C818.2,612.5,818.2,612.5,818.2,612.5z"/>
	<path class="st0" d="M859,654.2c-0.1,0-0.2,0-0.3,0l-32.2-1c-5-0.2-8.9-4.3-8.7-9.3c0.2-5,4.3-8.9,9.3-8.7l32.2,1
		c5,0.2,8.9,4.3,8.7,9.3C867.8,650.4,863.8,654.2,859,654.2z"/>
	<path class="st0" d="M857.9,692.8c-0.8,0-1.7-0.1-2.5-0.3c-4.8-1.4-7.5-6.3-6.2-11.1c4.7-16.4-0.8-58.4-3.3-73.2
		c-0.8-4.9,2.5-9.5,7.4-10.4c4.9-0.8,9.5,2.5,10.4,7.4c1,5.9,9.5,58,2.9,81.2C865.4,690.3,861.8,692.8,857.9,692.8z"/>
</g>
<g>
	<path class="st1" d="M414.6,471H235.8c-12.8,0-23.1-10.4-23.1-23.1V166.1c0-12.8,10.4-23.1,23.1-23.1h213.6
		c12.8,0,23.1,10.4,23.1,23.1v141.2"/>
	<path class="st1" d="M292,139.3V39.8c0-2.6,2.1-4.7,4.7-4.7h87.4c2.6,0,4.7,2.1,4.7,4.7v99.5"/>
	<path class="st1" d="M678.1,502.9H431c-8.1,0-14.6-6.5-14.6-14.6V324.9c0-8.1,6.5-14.6,14.6-14.6h247.1c8.1,0,14.6,6.5,14.6,14.6
		v163.4C692.7,496.4,686.1,502.9,678.1,502.9z"/>
	<path class="st2" d="M515.4,309.5v-25.6c0-12.8,10.4-23.1,23.1-23.1h24.2c12.8,0,23.1,10.4,23.1,23.1v25.6"/>
	<path class="st1" d="M405.5,193.1v18.6c0,21.7-18.9,39.3-42.3,39.3h-44.3c-23.3,0-42.3-17.6-42.3-39.3v-18.6"/>
	<line class="st1" x1="296.4" y1="81.3" x2="386.6" y2="81.3"/>
	<line class="st1" x1="593.6" y1="356.5" x2="639.8" y2="356.5"/>
	<line class="st1" x1="263.3" y1="471" x2="263.3" y2="500.7"/>
</g>
</svg>
