<?xml version="1.0" encoding="utf-8"?>
<!-- Generator: Adobe Illustrator 27.7.0, SVG Export Plug-In . SVG Version: 6.00 Build 0)  -->
<svg version="1.1" id="레이어_1" xmlns="http://www.w3.org/2000/svg" xmlns:xlink="http://www.w3.org/1999/xlink" x="0px"
	 y="0px" viewBox="0 0 1366 351.7" style="enable-background:new 0 0 1366 351.7;" xml:space="preserve">
<style type="text/css">
	.st0{fill:#7FCFF7;}
	.st1{fill:none;stroke:#7FCFF7;stroke-width:17;stroke-linecap:round;stroke-linejoin:round;stroke-miterlimit:10;}
	.st2{fill:none;stroke:#7FCFF7;stroke-width:17;stroke-linecap:square;stroke-linejoin:round;stroke-miterlimit:10;}
</style>
<g>
	<path class="st0" d="M366.9-460.6c-15.3,0-27.7-12.4-27.7-27.7c0-15.3,12.4-27.7,27.7-27.7s27.7,12.4,27.7,27.7
		C394.6-473,382.1-460.6,366.9-460.6z M366.9-498c-5.4,0-9.7,4.4-9.7,9.7c0,5.4,4.4,9.7,9.7,9.7c5.4,0,9.7-4.4,9.7-9.7
		C376.6-493.6,372.2-498,366.9-498z"/>
	<path class="st0" d="M672.7-450.1c-15.3,0-27.7-12.4-27.7-27.7c0-15.3,12.4-27.7,27.7-27.7s27.7,12.4,27.7,27.7
		C700.5-462.6,688-450.1,672.7-450.1z M672.7-487.6c-5.4,0-9.7,4.4-9.7,9.7c0,5.4,4.4,9.7,9.7,9.7c5.4,0,9.7-4.4,9.7-9.7
		C682.5-483.2,678.1-487.6,672.7-487.6z"/>
	<path class="st0" d="M847.4-435.8c-15.3,0-27.7-12.4-27.7-27.7c0-15.3,12.4-27.7,27.7-27.7c15.3,0,27.7,12.4,27.7,27.7
		C875.1-448.3,862.6-435.8,847.4-435.8z M847.4-473.3c-5.4,0-9.7,4.4-9.7,9.7c0,5.4,4.4,9.7,9.7,9.7c5.4,0,9.7-4.4,9.7-9.7
		C857.1-468.9,852.7-473.3,847.4-473.3z"/>
	<path class="st0" d="M1017.5-445c-13.8,0-24.9-11.2-24.9-24.9c0-13.8,11.2-24.9,24.9-24.9c13.8,0,24.9,11.2,24.9,24.9
		C1042.4-456.2,1031.3-445,1017.5-445z M1017.5-476.9c-3.8,0-6.9,3.1-6.9,6.9s3.1,6.9,6.9,6.9c3.8,0,6.9-3.1,6.9-6.9
		S1021.3-476.9,1017.5-476.9z"/>
	<path class="st0" d="M1060.5-374.9c-14.9,0-27-12.1-27-27c0-14.9,12.1-27,27-27s27,12.1,27,27
		C1087.6-387,1075.4-374.9,1060.5-374.9z M1060.5-410.9c-5,0-9,4.1-9,9c0,5,4.1,9,9,9s9-4.1,9-9
		C1069.6-406.9,1065.5-410.9,1060.5-410.9z"/>
	<path class="st0" d="M365.8-400.9c-5,0-9-4-9-9v-31.3c0-5,4-9,9-9s9,4,9,9v31.3C374.8-404.9,370.7-400.9,365.8-400.9z"/>
	<path class="st0" d="M424.2-399.9C424.2-399.9,424.1-399.9,424.2-399.9l-121.1-1c-5,0-9-4.1-8.9-9.1c0-4.9,4.1-8.9,9-8.9
		c0,0,0.1,0,0.1,0l121,1c5,0,9,4.1,8.9,9.1C433.1-403.8,429.1-399.9,424.2-399.9z"/>
	<path class="st0" d="M529.1-487.1c-8.3,0-15.1-2.2-19-3.4c-0.7-0.2-1.6-0.5-2-0.6c-2.4-0.2-4.7-1.3-6.4-3.1
		c-2.4-2.6-6-6.5-2.8-46.2c0.4-5,4.7-8.7,9.7-8.3c5,0.4,8.7,4.7,8.3,9.7c-0.9,11.3-1.4,24.9-0.9,31.5c7.4,2.4,19.6,6.1,31.7-5.3
		c3.6-3.4,9.3-3.3,12.7,0.3c3.4,3.6,3.3,9.3-0.3,12.7C549.4-489.9,538.3-487.1,529.1-487.1z M516.3-504.3L516.3-504.3L516.3-504.3z"
		/>
	<path class="st0" d="M585-446.3c-0.6,0-1.3-0.1-1.9-0.2c-9.9-2.1-78.9-2.3-120.1-1.9c0,0-0.1,0-0.1,0c-4.9,0-8.9-4-9-8.9
		c0-5,3.9-9,8.9-9.1c11.1-0.1,108.9-1,124,2.3c4.9,1,8,5.8,6.9,10.7C592.9-449.2,589.2-446.3,585-446.3z"/>
	<path class="st0" d="M512.4-340.1c-8.7,0-16.5-0.4-19.3-1.5c-2.1-0.9-5.1-2.8-6.8-7.5c-3.7-9.8-2-35.3,1.1-41.4
		c2.8-5.7,8.9-7.4,28.2-8c7.8-0.3,15.9-0.2,21.5-0.2c0.4-3.3,0.6-7.6,0.8-10.4c0.1-1.7,0.2-3.3,0.3-4.7c-5.7-1.3-17.2-2.3-28.1-2.3
		c-5,0-9-4-9-9c0-5,4-9,9-9c36.3,0,41.9,6.5,43.8,8.7c2.2,2.5,3.1,5.7,2.7,8.9c-0.3,1.8-0.5,5.1-0.7,8.6c-0.3,4.4-0.6,9.4-1.2,13.3
		c-0.5,3.5-1.9,13.9-11.2,13.9c-0.3,0-1,0-2,0c-23.7-0.3-34,0.4-38.4,1c-0.8,5.7-1.2,16-0.5,21.4c14.4,0.8,58.3-1.1,66.4-3.5
		c3.5-2.2,8.1-1.7,11.1,1.3c3.5,3.5,3.5,9.2,0,12.7c-2.4,2.4-5.4,5.4-44.2,7.1C529.2-340.4,520.4-340.1,512.4-340.1z M567.2-360.5
		C567.2-360.5,567.2-360.4,567.2-360.5C567.2-360.4,567.2-360.5,567.2-360.5z M541-412.8L541-412.8L541-412.8z"/>
	<path class="st0" d="M719.6-418.1c-1,0-2-0.2-3-0.5c-8.1-2.9-55-2.5-95.6-0.5c-5,0.2-9.2-3.6-9.4-8.5c-0.2-5,3.6-9.2,8.5-9.4
		c14.4-0.7,87.1-4,102.6,1.6c4.7,1.7,7.1,6.8,5.4,11.5C726.8-420.4,723.3-418.1,719.6-418.1z"/>
	<path class="st0" d="M748.8-397.2c-5,0-9-4-9-9c0-4.4-2.5-57.1-4.2-91.4c-0.2-5,3.6-9.2,8.5-9.4c4.9-0.3,9.2,3.6,9.4,8.5
		c0.4,8.8,4.2,85.9,4.2,92.2C757.8-401.3,753.8-397.2,748.8-397.2z"/>
	<path class="st0" d="M927.8-467.8c-14.6,0-33.6-5-38-6.2c-4.8-1.3-7.6-6.3-6.3-11.1c1.3-4.8,6.3-7.6,11.1-6.3
		c11.6,3.2,31.2,6.9,38.2,5.2c4.8-1.2,9.7,1.7,10.9,6.5c1.2,4.8-1.7,9.7-6.5,10.9C934.4-468.1,931.2-467.8,927.8-467.8z"/>
	<path class="st0" d="M916.6-435.4c-10.5,0-22.9-0.3-29.9-0.5c-5-0.1-8.9-4.3-8.8-9.2c0.1-5,4.3-8.9,9.2-8.8
		c18.4,0.5,39.5,0.7,43,0.2c4.9-1,9.6,2.2,10.5,7.1c1,4.9-2.2,9.6-7.1,10.6C931.2-435.5,924.5-435.4,916.6-435.4z"/>
	<path class="st0" d="M934.9-392c-5,0-9-4-9-9V-520c0-5,4-9,9-9c5,0,9,4,9,9V-401C943.9-396.1,939.9-392,934.9-392z"/>
	<path class="st0" d="M1033.3-514.1c-2.3,0-4.6-0.9-6.4-2.6c-3.3-3.3-14.9-11.3-21.5-15.5c-4.2-2.7-5.4-8.3-2.7-12.4
		c2.7-4.2,8.3-5.4,12.4-2.7c1.9,1.2,18.7,12.2,24.4,17.9c3.5,3.5,3.5,9.2,0,12.7C1037.9-515,1035.6-514.1,1033.3-514.1z"/>
	<path class="st0" d="M1049-492.2c-2,0-4.1-0.7-5.8-2.1c-5.9-4.9-36.7-7.2-61.7-6.3c-5,0.2-9.1-3.7-9.3-8.7c-0.2-5,3.7-9.1,8.7-9.3
		c13.8-0.5,59.8-1.3,73.9,10.4c3.8,3.2,4.3,8.9,1.2,12.7C1054.1-493.3,1051.5-492.2,1049-492.2z"/>
	<path class="st0" d="M1082.1-430.6c-1.3,0-2.6-0.3-3.8-0.8c-4.5-2.1-6.5-7.5-4.3-12c1.6-3.3,3.3-14.7,3.2-35.8
		c-0.1-19.5-1.7-35.6-2.7-40.1c-0.9-1.4-1.4-3-1.4-4.8c0-5,4-9,9-9c8.2,0,9.7,8.5,10.2,11.2c0.5,2.7,1,6.4,1.4,11
		c0.9,9.3,1.4,20.8,1.4,31.5c0.1,21.6-1.5,36.3-4.9,43.5C1088.8-432.6,1085.5-430.6,1082.1-430.6z M1082.1-515.1
		C1082.1-515.1,1082.1-515.1,1082.1-515.1C1082.1-515.1,1082.1-515.1,1082.1-515.1z M1082.1-515.1
		C1082.1-515.1,1082.1-515.1,1082.1-515.1C1082.1-515.1,1082.1-515.1,1082.1-515.1z M1082.1-515.1
		C1082.1-515.1,1082.1-515.1,1082.1-515.1C1082.1-515.1,1082.1-515.1,1082.1-515.1z"/>
	<path class="st0" d="M1122.8-473.4c-0.1,0-0.2,0-0.3,0l-32.2-1c-5-0.2-8.9-4.3-8.7-9.3c0.2-5,4.3-8.9,9.3-8.7l32.2,1
		c5,0.2,8.9,4.3,8.7,9.3C1131.7-477.2,1127.7-473.4,1122.8-473.4z"/>
	<path class="st0" d="M1121.8-434.8c-0.8,0-1.7-0.1-2.5-0.3c-4.8-1.4-7.5-6.3-6.2-11.1c4.7-16.4-0.8-58.4-3.3-73.2
		c-0.8-4.9,2.5-9.5,7.4-10.4c4.9-0.8,9.5,2.5,10.4,7.4c1,5.9,9.5,58,2.9,81.2C1129.3-437.4,1125.7-434.8,1121.8-434.8z"/>
</g>
<g>
	<path class="st1" d="M191.4,305.9h-113c-8.1,0-14.6-6.5-14.6-14.6V113.2c0-8.1,6.5-14.6,14.6-14.6h135c8.1,0,14.6,6.5,14.6,14.6
		v89.2"/>
	<path class="st1" d="M114,96.3V33.4c0-1.7,1.3-3,3-3h55.2c1.7,0,3,1.3,3,3v62.9"/>
	<path class="st1" d="M352.6,326.1H207.2c-8.1,0-14.6-6.5-14.6-14.6V219c0-8.1,6.5-14.6,14.6-14.6h145.4c8.1,0,14.6,6.5,14.6,14.6
		v92.5C367.2,319.5,360.6,326.1,352.6,326.1z"/>
	<path class="st2" d="M255.2,203.8v-16.2c0-8.1,6.5-14.6,14.6-14.6h15.3c8.1,0,14.6,6.5,14.6,14.6v16.2"/>
	<path class="st1" d="M185.7,130.3V142c0,13.7-12,24.8-26.7,24.8h-28c-14.7,0-26.7-11.1-26.7-24.8v-11.7"/>
	<line class="st1" x1="116.7" y1="59.7" x2="173.8" y2="59.7"/>
	<line class="st1" x1="304.6" y1="233.6" x2="333.8" y2="233.6"/>
	<line class="st1" x1="95.9" y1="305.9" x2="95.9" y2="324.7"/>
</g>
<g>
	<path class="st1" d="M678.4-656.6H499.7c-12.8,0-23.1-10.4-23.1-23.1v-281.8c0-12.8,10.4-23.1,23.1-23.1h213.6
		c12.8,0,23.1,10.4,23.1,23.1v141.2"/>
	<path class="st1" d="M555.8-988.4v-99.5c0-2.6,2.1-4.7,4.7-4.7H648c2.6,0,4.7,2.1,4.7,4.7v99.5"/>
	<path class="st1" d="M941.9-624.7H694.8c-8.1,0-14.6-6.5-14.6-14.6v-163.4c0-8.1,6.5-14.6,14.6-14.6h247.1
		c8.1,0,14.6,6.5,14.6,14.6v163.4C956.6-631.3,950-624.7,941.9-624.7z"/>
	<path class="st2" d="M779.3-818.2v-25.6c0-12.8,10.4-23.1,23.1-23.1h24.2c12.8,0,23.1,10.4,23.1,23.1v25.6"/>
	<path class="st1" d="M669.4-934.6v18.6c0,21.7-18.9,39.3-42.3,39.3h-44.3c-23.3,0-42.3-17.6-42.3-39.3v-18.6"/>
	<line class="st1" x1="560.2" y1="-1046.4" x2="650.5" y2="-1046.4"/>
	<line class="st1" x1="857.5" y1="-771.1" x2="903.7" y2="-771.1"/>
	<line class="st1" x1="527.2" y1="-656.6" x2="527.2" y2="-626.9"/>
</g>
<g>
	<path class="st0" d="M513.8,183.2c-15.9,0-28.9-13-28.9-28.9s13-28.9,28.9-28.9c15.9,0,28.9,13,28.9,28.9S529.7,183.2,513.8,183.2z
		 M513.8,144.2c-5.6,0-10.1,4.5-10.1,10.1c0,5.6,4.5,10.1,10.1,10.1c5.6,0,10.1-4.5,10.1-10.1C523.9,148.7,519.4,144.2,513.8,144.2z
		"/>
	<path class="st0" d="M832.5,194.1c-15.9,0-28.9-13-28.9-28.9s13-28.9,28.9-28.9c15.9,0,28.9,13,28.9,28.9S848.4,194.1,832.5,194.1z
		 M832.5,155.1c-5.6,0-10.1,4.5-10.1,10.1c0,5.6,4.5,10.1,10.1,10.1c5.6,0,10.1-4.5,10.1-10.1C842.6,159.6,838.1,155.1,832.5,155.1z
		"/>
	<path class="st0" d="M1014.4,208.9c-15.9,0-28.9-13-28.9-28.9s13-28.9,28.9-28.9c15.9,0,28.9,13,28.9,28.9
		S1030.3,208.9,1014.4,208.9z M1014.4,169.9c-5.6,0-10.1,4.5-10.1,10.1c0,5.6,4.5,10.1,10.1,10.1c5.6,0,10.1-4.5,10.1-10.1
		C1024.5,174.5,1020,169.9,1014.4,169.9z"/>
	<path class="st0" d="M1191.7,199.4c-14.3,0-26-11.7-26-26c0-14.3,11.7-26,26-26c14.3,0,26,11.7,26,26
		C1217.7,187.7,1206,199.4,1191.7,199.4z M1191.7,166.1c-4,0-7.2,3.2-7.2,7.2s3.2,7.2,7.2,7.2c4,0,7.2-3.2,7.2-7.2
		S1195.7,166.1,1191.7,166.1z"/>
	<path class="st0" d="M1236.6,272.5c-15.5,0-28.2-12.6-28.2-28.2s12.6-28.2,28.2-28.2s28.2,12.6,28.2,28.2
		S1252.1,272.5,1236.6,272.5z M1236.6,234.9c-5.2,0-9.4,4.2-9.4,9.4c0,5.2,4.2,9.4,9.4,9.4s9.4-4.2,9.4-9.4
		C1246,239.1,1241.7,234.9,1236.6,234.9z"/>
	<path class="st0" d="M512.6,243.8c-5.2,0-9.4-4.2-9.4-9.4v-32.6c0-5.2,4.2-9.4,9.4-9.4c5.2,0,9.4,4.2,9.4,9.4v32.6
		C522,239.6,517.8,243.8,512.6,243.8z"/>
	<path class="st0" d="M573.5,244.9C573.5,244.9,573.4,244.9,573.5,244.9l-126.2-1.1c-5.2,0-9.3-4.3-9.3-9.5c0-5.2,4.2-9.3,9.4-9.3
		c0,0,0.1,0,0.1,0l126.1,1.1c5.2,0,9.3,4.3,9.3,9.5C582.8,240.7,578.6,244.9,573.5,244.9z"/>
	<path class="st0" d="M682.8,155.5c-8.6,0-15.7-2.3-19.8-3.6c-0.7-0.2-1.6-0.5-2.1-0.7c-2.5-0.2-4.9-1.4-6.6-3.3
		c-2.5-2.7-6.2-6.7-3-48.1c0.4-5.2,5-9,10.1-8.6c5.2,0.4,9,4.9,8.6,10.1c-0.9,11.8-1.4,25.9-1,32.8c7.7,2.5,20.4,6.4,33-5.6
		c3.8-3.6,9.7-3.4,13.3,0.4c3.6,3.8,3.4,9.7-0.4,13.3C703.9,152.6,692.4,155.5,682.8,155.5z M669.5,137.6L669.5,137.6L669.5,137.6z"
		/>
	<path class="st0" d="M741.1,198.1c-0.7,0-1.3-0.1-2-0.2c-10.3-2.2-82.2-2.4-125.1-2c0,0-0.1,0-0.1,0c-5.1,0-9.3-4.1-9.4-9.3
		c-0.1-5.2,4.1-9.4,9.3-9.5c11.6-0.1,113.5-1,129.2,2.4c5.1,1.1,8.3,6.1,7.2,11.1C749.3,195.1,745.4,198.1,741.1,198.1z"/>
	<path class="st0" d="M665.4,308.7c-9.1,0-17.2-0.4-20.1-1.5c-2.2-0.9-5.3-3-7.1-7.8c-3.9-10.2-2.1-36.7,1.1-43.2
		c2.9-5.9,9.3-7.7,29.4-8.3c8.1-0.3,16.6-0.2,22.4-0.2c0.4-3.5,0.7-7.9,0.8-10.8c0.1-1.8,0.2-3.4,0.3-4.9c-5.9-1.4-18-2.4-29.3-2.4
		c-5.2,0-9.4-4.2-9.4-9.4c0-5.2,4.2-9.4,9.4-9.4c37.8,0,43.7,6.8,45.6,9c2.3,2.6,3.3,5.9,2.8,9.3c-0.3,1.9-0.5,5.3-0.7,9
		c-0.3,4.6-0.6,9.8-1.2,13.9c-0.5,3.6-2,14.5-11.7,14.5c-0.3,0-1,0-2.1,0c-24.7-0.3-35.4,0.4-40,1c-0.8,6-1.2,16.6-0.5,22.3
		c15,0.8,60.8-1.1,69.2-3.7c3.6-2.3,8.4-1.8,11.6,1.3c3.7,3.7,3.7,9.6,0,13.3c-2.5,2.5-5.6,5.6-46,7.4
		C682.9,308.4,673.7,308.7,665.4,308.7z M722.5,287.5C722.5,287.5,722.5,287.5,722.5,287.5C722.5,287.5,722.5,287.5,722.5,287.5z
		 M724.6,286L724.6,286L724.6,286z M695.2,233L695.2,233L695.2,233z"/>
	<path class="st0" d="M881.3,227.4c-1,0-2.1-0.2-3.2-0.5c-8.4-3-57.3-2.6-99.7-0.6c-5.2,0.2-9.6-3.7-9.8-8.9
		c-0.3-5.2,3.7-9.6,8.9-9.8c15-0.7,90.7-4.1,106.9,1.6c4.9,1.7,7.4,7.1,5.7,12C888.8,225,885.2,227.4,881.3,227.4z"/>
	<path class="st0" d="M911.8,249.2c-5.2,0-9.4-4.2-9.4-9.4c0-4.6-2.6-59.5-4.3-95.2c-0.3-5.2,3.7-9.6,8.9-9.8
		c5.1-0.3,9.6,3.7,9.8,8.9c0.4,9.1,4.4,89.6,4.4,96.1C921.1,245,916.9,249.2,911.8,249.2z"/>
	<path class="st0" d="M1098.2,175.6c-15.2,0-35-5.2-39.6-6.5c-5-1.4-7.9-6.5-6.5-11.5c1.4-5,6.5-7.9,11.5-6.5
		c12.1,3.3,32.5,7.2,39.8,5.4c5-1.3,10.1,1.8,11.4,6.8c1.3,5-1.8,10.1-6.8,11.4C1105.1,175.3,1101.8,175.6,1098.2,175.6z"/>
	<path class="st0" d="M1086.6,209.4c-10.9,0-23.9-0.3-31.2-0.5c-5.2-0.1-9.3-4.4-9.1-9.6c0.1-5.2,4.5-9.3,9.6-9.1
		c19.2,0.5,41.2,0.7,44.8,0.2c5.1-1,10,2.3,11,7.4c1,5.1-2.3,10-7.4,11C1101.7,209.3,1094.8,209.4,1086.6,209.4z"/>
	<path class="st0" d="M1105.7,254.6c-5.2,0-9.4-4.2-9.4-9.4V121.3c0-5.2,4.2-9.4,9.4-9.4c5.2,0,9.4,4.2,9.4,9.4v123.9
		C1115,250.4,1110.8,254.6,1105.7,254.6z"/>
	<path class="st0" d="M1208.2,127.4c-2.4,0-4.8-0.9-6.6-2.7c-3.4-3.4-15.6-11.7-22.4-16.2c-4.3-2.8-5.6-8.6-2.8-13
		c2.8-4.3,8.6-5.6,13-2.8c2,1.3,19.5,12.7,25.5,18.6c3.7,3.7,3.7,9.6,0,13.3C1213,126.5,1210.6,127.4,1208.2,127.4z"/>
	<path class="st0" d="M1224.5,150.2c-2.1,0-4.2-0.7-6-2.2c-6.1-5.1-38.2-7.5-64.3-6.5c-5.2,0.2-9.5-3.8-9.7-9
		c-0.2-5.2,3.8-9.5,9-9.7c14.4-0.5,62.3-1.4,77,10.9c4,3.3,4.5,9.2,1.2,13.2C1229.8,149.1,1227.2,150.2,1224.5,150.2z"/>
	<path class="st0" d="M1259.1,214.4c-1.3,0-2.7-0.3-4-0.9c-4.7-2.2-6.7-7.8-4.5-12.5c1.6-3.5,3.5-15.3,3.3-37.3
		c-0.1-20.4-1.8-37.1-2.8-41.8c-0.9-1.5-1.5-3.2-1.5-5c0-5.2,4.2-9.4,9.4-9.4c8.5,0,10.1,8.8,10.6,11.7c0.5,2.9,1,6.7,1.4,11.5
		c0.9,9.7,1.4,21.7,1.5,32.9c0.1,22.6-1.6,37.8-5.1,45.3C1266,212.4,1262.6,214.4,1259.1,214.4z M1259.1,126.3
		C1259.1,126.3,1259.1,126.3,1259.1,126.3C1259.1,126.3,1259.1,126.3,1259.1,126.3z M1259,126.3C1259,126.3,1259.1,126.3,1259,126.3
		C1259.1,126.3,1259,126.3,1259,126.3z M1259,126.3C1259,126.3,1259,126.3,1259,126.3C1259,126.3,1259,126.3,1259,126.3z"/>
	<path class="st0" d="M1300.7,169.8c-0.1,0-0.2,0-0.3,0l-37.3-1.1c-4.9-0.1-8.8-4.5-8.7-9.6c0.1-5.1,4.1-9.1,8.9-9.1
		c0.1,0,0.2,0,0.3,0l37.3,1.1c4.9,0.1,8.8,4.5,8.7,9.6C1309.5,165.8,1305.5,169.8,1300.7,169.8z"/>
	<path class="st0" d="M1300.4,210c-0.9,0-1.7-0.1-2.6-0.4c-5-1.4-7.9-6.6-6.4-11.6c4.9-17-0.9-60.9-3.5-76.3
		c-0.9-5.1,2.6-9.9,7.7-10.8c5.1-0.9,9.9,2.6,10.8,7.7c1,6.1,9.9,60.4,3,84.6C1308.2,207.3,1304.5,210,1300.4,210z"/>
</g>
</svg>
