<?xml version="1.0" encoding="utf-8"?>
<!-- Generator: Adobe Illustrator 27.7.0, SVG Export Plug-In . SVG Version: 6.00 Build 0)  -->
<svg version="1.1" id="레이어_1" xmlns="http://www.w3.org/2000/svg" xmlns:xlink="http://www.w3.org/1999/xlink" x="0px"
	 y="0px" viewBox="0 0 30 30" style="enable-background:new 0 0 30 30;" xml:space="preserve">
<style type="text/css">
	.st0{fill-rule:evenodd;clip-rule:evenodd;fill:#FFFFFF;}
</style>
<path id="XMLID_00000156553018156758851350000009522889212769600677_" class="st0" d="M5.6,5.2c0.9,0.8,1.3,0.7,3,0.6l16.5-1
	c0.4,0,0.1-0.3-0.1-0.4l-2.7-2c-0.5-0.4-1.2-0.9-2.6-0.8l-16,1.2C3.2,2.9,3.1,3.2,3.3,3.4L5.6,5.2z M6.6,9.1v17.4
	c0,0.9,0.5,1.3,1.5,1.2l18.2-1.1c1.1-0.1,1.2-0.7,1.2-1.5V7.9c0-0.8-0.3-1.2-0.9-1.1l-19,1.1C6.8,8,6.6,8.3,6.6,9.1L6.6,9.1z
	 M24.5,10c0.1,0.5,0,1.1-0.5,1.1l-0.9,0.2v12.8c-0.8,0.4-1.5,0.6-2,0.6c-0.9,0-1.2-0.3-1.9-1.2l-5.7-9v8.7l1.8,0.4c0,0,0,1-1.5,1
	l-4,0.2c-0.1-0.2,0-0.8,0.4-0.9l1.1-0.3V12.3l-1.5-0.1c-0.1-0.5,0.2-1.3,1-1.3l4.3-0.3l6,9.1v-8l-1.5-0.2c-0.1-0.6,0.3-1.1,0.9-1.2
	L24.5,10z M2.5,1.3L19.1,0c2-0.2,2.6-0.1,3.9,0.9l5.3,3.7c0.9,0.6,1.2,0.8,1.2,1.5v20.5c0,1.3-0.5,2-2.1,2.2L8,29.9
	C6.8,30,6.2,29.8,5.5,29l-3.9-5.1c-0.7-0.9-1-1.6-1-2.5V3.3C0.6,2.2,1.1,1.4,2.5,1.3z"/>
</svg>
